<?xml version="1.0" standalone="no"?>
<!DOCTYPE svg PUBLIC "-//W3C//DTD SVG 20010904//EN"
 "http://www.w3.org/TR/2001/REC-SVG-20010904/DTD/svg10.dtd">
<svg version="1.0" xmlns="http://www.w3.org/2000/svg"
 width="500.000000pt" height="500.000000pt" viewBox="0 0 500.000000 500.000000"
 preserveAspectRatio="xMidYMid meet">

<g transform="translate(0.000000,500.000000) scale(0.100000,-0.100000)"
fill="#000000" stroke="none">
<path d="M3432 4622 c-30 -2 -50 -7 -47 -13 8 -13 92 -12 100 2 9 14 8 14 -53
11z"/>
<path d="M3380 4559 c0 -10 28 -19 55 -19 27 0 55 9 55 19 0 3 -25 6 -55 6
-30 0 -55 -3 -55 -6z"/>
<path d="M3380 4499 c0 -12 65 -22 89 -14 38 12 22 22 -34 22 -30 0 -55 -4
-55 -8z"/>
<path d="M3385 4440 c3 -5 28 -10 56 -10 27 0 49 5 49 10 0 6 -25 10 -56 10
-34 0 -53 -4 -49 -10z"/>
<path d="M3383 4385 c2 -5 25 -10 52 -10 27 0 50 5 52 10 2 6 -20 10 -52 10
-32 0 -54 -4 -52 -10z"/>
<path d="M3380 4329 c0 -10 27 -19 55 -19 13 0 30 3 39 6 31 12 15 20 -39 20
-30 0 -55 -3 -55 -7z"/>
<path d="M3380 4271 c0 -12 57 -22 86 -15 43 11 26 24 -31 24 -30 0 -55 -4
-55 -9z"/>
<path d="M3385 4210 c3 -5 28 -10 56 -10 27 0 49 5 49 10 0 6 -25 10 -56 10
-34 0 -53 -4 -49 -10z"/>
<path d="M3383 4155 c2 -5 25 -10 52 -10 27 0 50 5 52 10 2 6 -20 10 -52 10
-32 0 -54 -4 -52 -10z"/>
<path d="M3380 4099 c0 -10 27 -19 55 -19 13 0 30 3 39 6 31 12 15 20 -39 20
-30 0 -55 -3 -55 -7z"/>
<path d="M3386 4041 c17 -17 104 -18 104 -1 0 6 -26 10 -57 10 -35 0 -53 -4
-47 -9z"/>
<path d="M3385 3980 c3 -5 26 -10 50 -10 24 0 47 5 50 10 4 6 -15 10 -50 10
-35 0 -54 -4 -50 -10z"/>
<path d="M3380 3928 c0 -20 100 -23 107 -3 2 6 -20 10 -52 10 -30 0 -55 -3
-55 -7z"/>
<path d="M3380 3869 c0 -12 65 -22 89 -14 37 11 23 21 -34 21 -30 1 -55 -2
-55 -7z"/>
<path d="M3385 3810 c3 -5 28 -10 56 -10 27 0 49 5 49 10 0 6 -25 10 -56 10
-34 0 -53 -4 -49 -10z"/>
<path d="M3383 3757 c-2 -4 2 -10 10 -13 22 -8 90 0 94 11 4 12 -96 14 -104 2z"/>
<path d="M3380 3698 c0 -20 100 -23 107 -3 2 6 -20 10 -52 11 -30 0 -55 -3
-55 -8z"/>
<path d="M3360 3559 c0 -66 -4 -89 -21 -118 -12 -20 -424 -439 -914 -931 -635
-636 -899 -908 -915 -940 -16 -30 -24 -70 -28 -127 l-5 -83 87 0 86 0 0 65 c0
37 7 82 15 103 11 25 284 305 890 912 480 481 888 893 904 914 41 51 61 123
61 213 l0 73 -80 0 -80 0 0 -81z"/>
<path d="M1533 1313 c-27 -10 -11 -18 37 -19 50 0 65 8 34 20 -18 7 -53 7 -71
-1z"/>
<path d="M1520 1248 c0 -9 16 -13 50 -13 63 0 60 19 -3 23 -34 2 -47 -1 -47
-10z"/>
<path d="M1515 1190 c-4 -6 15 -10 49 -10 31 0 56 5 56 10 0 6 -22 10 -49 10
-28 0 -53 -4 -56 -10z"/>
<path d="M1533 1140 c-34 -14 -28 -17 32 -17 54 0 71 9 39 21 -21 8 -44 7 -71
-4z"/>
<path d="M1527 1083 c-15 -14 -5 -18 43 -18 50 0 64 8 34 19 -21 8 -69 8 -77
-1z"/>
<path d="M1515 1021 c-3 -6 -5 -11 -3 -12 31 -6 107 -2 105 6 -5 14 -94 19
-102 6z"/>
<path d="M1515 960 c-4 -6 15 -10 49 -10 31 0 56 5 56 10 0 6 -22 10 -49 10
-28 0 -53 -4 -56 -10z"/>
<path d="M1524 906 c-17 -13 -14 -14 39 -14 56 1 73 10 41 22 -26 10 -59 7
-80 -8z"/>
<path d="M1520 850 c-8 -5 -13 -10 -10 -10 47 -6 109 -3 107 5 -5 14 -78 18
-97 5z"/>
<path d="M1515 790 c-4 -6 15 -10 49 -10 31 0 56 5 56 10 0 6 -22 10 -49 10
-28 0 -53 -4 -56 -10z"/>
<path d="M1515 730 c-4 -6 15 -10 49 -10 31 0 56 5 56 10 0 6 -22 10 -49 10
-28 0 -53 -4 -56 -10z"/>
<path d="M1526 677 c-15 -11 -9 -13 38 -13 55 0 71 8 40 20 -26 10 -59 7 -78
-7z"/>
<path d="M1527 624 c-15 -15 -6 -19 43 -19 29 0 49 4 47 10 -4 12 -79 19 -90
9z"/>
<path d="M1515 560 c-4 -6 15 -10 49 -10 31 0 56 5 56 10 0 6 -22 10 -49 10
-28 0 -53 -4 -56 -10z"/>
<path d="M1545 513 c-46 -11 -37 -23 18 -23 31 0 57 5 57 10 0 6 -6 10 -14 10
-8 0 -20 2 -28 4 -7 2 -22 1 -33 -1z"/>
<path d="M1520 450 c-18 -12 -19 -11 48 -13 51 -2 67 5 36 17 -23 9 -67 7 -84
-4z"/>
<path d="M1515 391 c-3 -6 -5 -11 -3 -12 31 -6 107 -2 105 6 -5 14 -94 19
-102 6z"/>
</g>
</svg>
